<svg xmlns="http://www.w3.org/2000/svg" width="1200" height="630" viewBox="0 0 1200 630" fill="none">
  <rect width="1200" height="630" fill="#080506"/>
  <circle cx="958" cy="128" r="214" fill="url(#a)" opacity=".55"/>
  <circle cx="192" cy="548" r="226" fill="url(#b)" opacity=".36"/>
  <path d="M0 0h1200v630H0z" fill="url(#c)"/>
  <rect x="650" y="106" width="338" height="420" rx="34" fill="#110B0C" stroke="rgba(241,31,42,0.18)"/>
  <rect x="696" y="142" width="160" height="348" rx="34" fill="#181011" stroke="rgba(255,255,255,0.06)"/>
  <rect x="776" y="154" width="82" height="324" rx="22" fill="url(#d)"/>
  <path d="M805 170v294M830 176v290" stroke="#6D0A11" stroke-width="3" stroke-linecap="round"/>
  <circle cx="842" cy="322" r="8" fill="#F4C343"/>
  <path d="M164 196h170" stroke="#F11F2A" stroke-width="6" stroke-linecap="round"/>
  <text x="100" y="182" fill="#F11F2A" font-family="Avenir Next, SF Pro Display, sans-serif" font-size="22" letter-spacing="7.2">SECURE MESSAGING PLATFORM</text>
  <text x="100" y="298" fill="#F8F3F4" font-family="Avenir Next, SF Pro Display, sans-serif" font-size="92" font-weight="700">ReDoor</text>
  <text x="100" y="370" fill="#EADEDF" font-family="Avenir Next, SF Pro Text, sans-serif" font-size="32">Privacy-first secure messaging with untrusted relays</text>
  <text x="100" y="444" fill="#CDBEC0" font-family="IBM Plex Mono, monospace" font-size="20">X3DH / Double Ratchet / volatile client state / tamper evidence</text>
  <defs>
    <radialGradient id="a" cx="0" cy="0" r="1" gradientUnits="userSpaceOnUse" gradientTransform="translate(958 128) rotate(90) scale(214)">
      <stop stop-color="#F11F2A"/>
      <stop offset="1" stop-color="#F11F2A" stop-opacity="0"/>
    </radialGradient>
    <radialGradient id="b" cx="0" cy="0" r="1" gradientUnits="userSpaceOnUse" gradientTransform="translate(192 548) rotate(90) scale(226)">
      <stop stop-color="#FF5A57"/>
      <stop offset="1" stop-color="#FF5A57" stop-opacity="0"/>
    </radialGradient>
    <linearGradient id="c" x1="600" y1="0" x2="600" y2="630" gradientUnits="userSpaceOnUse">
      <stop stop-color="rgba(255,255,255,0.02)"/>
      <stop offset="1" stop-color="rgba(255,255,255,0)"/>
    </linearGradient>
    <linearGradient id="d" x1="817" y1="154" x2="817" y2="478" gradientUnits="userSpaceOnUse">
      <stop stop-color="#FF5A57"/>
      <stop offset=".56" stop-color="#F11F2A"/>
      <stop offset="1" stop-color="#930E16"/>
    </linearGradient>
  </defs>
</svg>
