<svg xmlns="http://www.w3.org/2000/svg" width="1280" height="760" viewBox="0 0 1280 760" fill="none">
  <style>
    .flow-path { animation: dash 11s linear infinite; }
    .flow-node { animation: nodePulse 6s ease-in-out infinite; }
    .card-breathe {
      animation: cardBreathe 9s ease-in-out infinite;
      transform-box: fill-box;
      transform-origin: center;
    }
    @keyframes dash {
      from { stroke-dashoffset: 0; }
      to { stroke-dashoffset: -46; }
    }
    @keyframes nodePulse {
      0%, 100% { opacity: .76; }
      50% { opacity: 1; }
    }
    @keyframes cardBreathe {
      0%, 100% { transform: translateY(0); }
      50% { transform: translateY(-2px); }
    }
  </style>
  <rect width="1280" height="760" rx="34" fill="#0A0607"/>
  <rect x="64" y="88" width="360" height="584" rx="34" fill="rgba(255,255,255,0.015)" stroke="rgba(255,255,255,0.08)"/>
  <rect x="456" y="120" width="332" height="520" rx="38" fill="rgba(241,31,42,0.055)" stroke="rgba(241,31,42,0.22)"/>
  <rect x="820" y="88" width="396" height="584" rx="34" fill="rgba(255,255,255,0.015)" stroke="rgba(255,255,255,0.08)"/>
  <text x="96" y="138" fill="#F11F2A" font-family="Avenir Next, sans-serif" font-size="18" letter-spacing="5.2">TRUSTED EDGES</text>
  <text x="502" y="138" fill="#F11F2A" font-family="Avenir Next, sans-serif" font-size="18" letter-spacing="5.2">NARROW MIDDLE</text>
  <text x="854" y="138" fill="#F11F2A" font-family="Avenir Next, sans-serif" font-size="18" letter-spacing="5.2">SUPPORT PLANES</text>
  <rect x="100" y="176" width="288" height="188" rx="28" fill="#161011" stroke="rgba(255,255,255,0.08)" class="card-breathe"/>
  <rect x="100" y="392" width="288" height="188" rx="28" fill="#161011" stroke="rgba(255,255,255,0.08)" class="card-breathe"/>
  <rect x="522" y="218" width="200" height="324" rx="32" fill="#171012" stroke="rgba(241,31,42,0.26)"/>
  <rect x="856" y="176" width="324" height="188" rx="28" fill="#161011" stroke="rgba(255,255,255,0.08)" class="card-breathe"/>
  <rect x="856" y="392" width="324" height="188" rx="28" fill="#161011" stroke="rgba(255,255,255,0.08)" class="card-breathe"/>
  <path d="M388 272C442 272 466 272 522 286" stroke="#F11F2A" stroke-width="7" stroke-linecap="round" stroke-dasharray="18 18" class="flow-path"/>
  <path d="M388 488C442 488 468 482 522 470" stroke="#F11F2A" stroke-width="7" stroke-linecap="round" stroke-dasharray="18 18" class="flow-path"/>
  <path d="M722 300C776 300 808 284 856 272" stroke="#F11F2A" stroke-width="7" stroke-linecap="round" stroke-dasharray="18 18" class="flow-path"/>
  <path d="M722 462C776 462 808 476 856 488" stroke="#F11F2A" stroke-width="7" stroke-linecap="round" stroke-dasharray="18 18" class="flow-path"/>
  <circle cx="522" cy="286" r="8.5" fill="#FF5A57" class="flow-node"/>
  <circle cx="522" cy="470" r="8.5" fill="#FF5A57" class="flow-node"/>
  <circle cx="856" cy="272" r="8.5" fill="#FF5A57" class="flow-node"/>
  <circle cx="856" cy="488" r="8.5" fill="#FF5A57" class="flow-node"/>
  <text x="132" y="228" fill="#F11F2A" font-family="Avenir Next, sans-serif" font-size="18" letter-spacing="4.2">APP SHELL</text>
  <text x="132" y="274" fill="#FFF8F7" font-family="Avenir Next, sans-serif" font-size="34" font-weight="700">iOS App</text>
  <text x="132" y="318" fill="#EADEDF" font-family="Avenir Next, sans-serif" font-size="22">Lifecycle wipes and duress policy</text>
  <text x="132" y="348" fill="#EADEDF" font-family="Avenir Next, sans-serif" font-size="22">Secure network validation</text>
  <text x="132" y="444" fill="#F11F2A" font-family="Avenir Next, sans-serif" font-size="18" letter-spacing="4.2">CLIENT RUNTIME</text>
  <text x="132" y="490" fill="#FFF8F7" font-family="Avenir Next, sans-serif" font-size="34" font-weight="700">Rust Runtime</text>
  <text x="132" y="534" fill="#EADEDF" font-family="Avenir Next, sans-serif" font-size="22">X3DH and Double Ratchet state</text>
  <text x="132" y="564" fill="#EADEDF" font-family="Avenir Next, sans-serif" font-size="22">Volatile memory and wipe flows</text>
  <text x="548" y="274" fill="#F11F2A" font-family="Avenir Next, sans-serif" font-size="18" letter-spacing="4.2">UNTRUSTED RELAY</text>
  <text x="548" y="318" fill="#FFF8F7" font-family="Avenir Next, sans-serif" font-size="34" font-weight="700">Opaque transport</text>
  <text x="548" y="362" fill="#EADEDF" font-family="Avenir Next, sans-serif" font-size="22">TLS, HMAC, replay resistance</text>
  <text x="548" y="392" fill="#EADEDF" font-family="Avenir Next, sans-serif" font-size="22">Fetch-once ciphertext envelopes</text>
  <rect x="576" y="430" width="92" height="88" rx="20" fill="#0D0708" stroke="rgba(255,255,255,0.06)"/>
  <rect x="620" y="440" width="28" height="68" rx="10" fill="url(#door)"/>
  <path d="M630 448v52M639 450v54" stroke="#6D0A11" stroke-width="2.4" stroke-linecap="round"/>
  <circle cx="643" cy="475" r="3.2" fill="#F4C343"/>
  <text x="890" y="228" fill="#F11F2A" font-family="Avenir Next, sans-serif" font-size="18" letter-spacing="4.2">DISCOVERY PLANE</text>
  <text x="890" y="274" fill="#FFF8F7" font-family="Avenir Next, sans-serif" font-size="34" font-weight="700">Directory DHT</text>
  <text x="890" y="318" fill="#EADEDF" font-family="Avenir Next, sans-serif" font-size="22">Signed bundle resolution</text>
  <text x="890" y="348" fill="#EADEDF" font-family="Avenir Next, sans-serif" font-size="22">TTL prekeys and lease ownership</text>
  <text x="890" y="444" fill="#F11F2A" font-family="Avenir Next, sans-serif" font-size="18" letter-spacing="4.2">INTEGRITY PLANE</text>
  <text x="890" y="490" fill="#FFF8F7" font-family="Avenir Next, sans-serif" font-size="28" font-weight="700">Blockchain</text>
  <text x="890" y="522" fill="#FFF8F7" font-family="Avenir Next, sans-serif" font-size="28" font-weight="700">commitments</text>
  <text x="890" y="552" fill="#EADEDF" font-family="Avenir Next, sans-serif" font-size="20">Commitment evidence only</text>
  <text x="890" y="580" fill="#EADEDF" font-family="Avenir Next, sans-serif" font-size="20">No plaintext or ciphertext on-chain</text>
  <defs>
    <linearGradient id="door" x1="634" y1="440" x2="634" y2="508" gradientUnits="userSpaceOnUse">
      <stop stop-color="#FF5A57"/>
      <stop offset=".58" stop-color="#F11F2A"/>
      <stop offset="1" stop-color="#930E16"/>
    </linearGradient>
  </defs>
</svg>
