<svg xmlns="http://www.w3.org/2000/svg" width="1280" height="860" viewBox="0 0 1280 860" fill="none">
  <style>
    .lifeline { animation: lift 8.5s ease-in-out infinite; }
    .trace { animation: dash 8s linear infinite; }
    .pulse { animation: pulse 5s ease-in-out infinite; }
    @keyframes dash {
      from { stroke-dashoffset: 0; }
      to { stroke-dashoffset: -36; }
    }
    @keyframes pulse {
      0%, 100% { opacity: .8; }
      50% { opacity: 1; }
    }
    @keyframes lift {
      0%, 100% { opacity: .44; }
      50% { opacity: .68; }
    }
  </style>
  <rect width="1280" height="860" rx="32" fill="#0A0607"/>
  <text x="104" y="92" fill="#F11F2A" font-family="Avenir Next, sans-serif" font-size="18" letter-spacing="4.8">SEQUENCE VIEW</text>
  <text x="92" y="152" fill="#FFF8F7" font-family="Avenir Next, sans-serif" font-size="24" font-weight="700">Sender Device</text>
  <text x="336" y="152" fill="#FFF8F7" font-family="Avenir Next, sans-serif" font-size="24" font-weight="700">Directory</text>
  <text x="584" y="152" fill="#FFF8F7" font-family="Avenir Next, sans-serif" font-size="24" font-weight="700">Relay</text>
  <text x="804" y="152" fill="#FFF8F7" font-family="Avenir Next, sans-serif" font-size="24" font-weight="700">Receiver Device</text>
  <text x="1060" y="152" fill="#FFF8F7" font-family="Avenir Next, sans-serif" font-size="24" font-weight="700">Evidence Plane</text>
  <path d="M168 190V764M406 190V764M646 190V764M924 190V764M1146 190V764" stroke="rgba(255,255,255,0.18)" stroke-width="2" stroke-dasharray="8 10" class="lifeline"/>
  <rect x="74" y="220" width="264" height="92" rx="22" fill="#171011" stroke="rgba(255,255,255,0.08)"/>
  <text x="100" y="258" fill="#F11F2A" font-family="IBM Plex Mono, monospace" font-size="16">01</text>
  <text x="100" y="286" fill="#EADEDF" font-family="Avenir Next, sans-serif" font-size="20">Generate identity and</text>
  <text x="100" y="314" fill="#EADEDF" font-family="Avenir Next, sans-serif" font-size="20">signed prekeys</text>
  <path d="M248 356H406" stroke="#F11F2A" stroke-width="6" stroke-linecap="round" stroke-dasharray="18 18" class="trace"/>
  <path d="M406 356l-18-14v28l18-14Z" fill="#F11F2A" class="pulse"/>
  <text x="196" y="344" fill="#CDBEC0" font-family="IBM Plex Mono, monospace" font-size="16">resolve bundle</text>
  <rect x="320" y="316" width="264" height="92" rx="22" fill="#171011" stroke="rgba(255,255,255,0.08)"/>
  <text x="346" y="354" fill="#F11F2A" font-family="IBM Plex Mono, monospace" font-size="16">02</text>
  <text x="346" y="382" fill="#EADEDF" font-family="Avenir Next, sans-serif" font-size="20">Return signed resolve</text>
  <text x="346" y="410" fill="#EADEDF" font-family="Avenir Next, sans-serif" font-size="20">material</text>
  <path d="M248 470H646" stroke="#F11F2A" stroke-width="6" stroke-linecap="round" stroke-dasharray="18 18" class="trace"/>
  <path d="M646 470l-18-14v28l18-14Z" fill="#F11F2A" class="pulse"/>
  <text x="410" y="458" fill="#CDBEC0" font-family="IBM Plex Mono, monospace" font-size="16">push opaque envelope</text>
  <rect x="582" y="428" width="220" height="92" rx="22" fill="#181011" stroke="rgba(241,31,42,0.22)"/>
  <text x="608" y="466" fill="#F11F2A" font-family="IBM Plex Mono, monospace" font-size="16">03</text>
  <text x="608" y="494" fill="#EADEDF" font-family="Avenir Next, sans-serif" font-size="20">Queue by rotating</text>
  <text x="608" y="522" fill="#EADEDF" font-family="Avenir Next, sans-serif" font-size="20">handle</text>
  <path d="M646 586H924" stroke="#F11F2A" stroke-width="6" stroke-linecap="round" stroke-dasharray="18 18" class="trace"/>
  <path d="M924 586l-18-14v28l18-14Z" fill="#F11F2A" class="pulse"/>
  <text x="718" y="574" fill="#CDBEC0" font-family="IBM Plex Mono, monospace" font-size="16">fetch once</text>
  <rect x="760" y="544" width="328" height="92" rx="22" fill="#171011" stroke="rgba(255,255,255,0.08)"/>
  <text x="786" y="582" fill="#F11F2A" font-family="IBM Plex Mono, monospace" font-size="16">04</text>
  <text x="786" y="610" fill="#EADEDF" font-family="Avenir Next, sans-serif" font-size="20">Decrypt, verify, and</text>
  <text x="786" y="638" fill="#EADEDF" font-family="Avenir Next, sans-serif" font-size="20">consume in memory</text>
  <path d="M924 714H1146" stroke="#FF5A57" stroke-width="6" stroke-linecap="round" stroke-dasharray="18 18" class="trace"/>
  <path d="M1146 714l-18-14v28l18-14Z" fill="#FF5A57" class="pulse"/>
  <text x="958" y="702" fill="#CDBEC0" font-family="IBM Plex Mono, monospace" font-size="16">submit hash commitment</text>
  <rect x="1008" y="672" width="238" height="92" rx="22" fill="#171011" stroke="rgba(255,255,255,0.08)"/>
  <text x="1034" y="710" fill="#F11F2A" font-family="IBM Plex Mono, monospace" font-size="16">05</text>
  <text x="1034" y="738" fill="#EADEDF" font-family="Avenir Next, sans-serif" font-size="20">Store tamper-evident</text>
  <text x="1034" y="766" fill="#EADEDF" font-family="Avenir Next, sans-serif" font-size="20">integrity record</text>
</svg>
